<svg xmlns="http://www.w3.org/2000/svg" xmlns:oryx="http://oryx-editor.org" id="_C56FECE2-A9FF-4CBB-AA6F-E1D28E09E500" width="638" height="361" xmlns:xlink="http://www.w3.org/1999/xlink" xmlns:svg="http://www.w3.org/2000/svg"><defs><marker id="_42FB0EF0-2ED8-40B7-8C77-177C5A4406EDstart" refX="1" refY="5" markerUnits="userSpaceOnUse" markerWidth="17" markerHeight="11" orient="auto" fill="#000000" stroke="#000000"> 	  		<path id="_42FB0EF0-2ED8-40B7-8C77-177C5A4406EDconditional" d="M 0 5 L 8 0 L 16 5 L 8 10 L 0 5" fill="white" stroke="#000000" stroke-width="1" display="none"/> 			<path id="_42FB0EF0-2ED8-40B7-8C77-177C5A4406EDdefault" d="M 5 0 L 11 10" fill="white" stroke="#000000" stroke-width="1" display="none"/> 	  	</marker><marker id="_42FB0EF0-2ED8-40B7-8C77-177C5A4406EDend" refX="15" refY="6" markerUnits="userSpaceOnUse" markerWidth="15" markerHeight="12" orient="auto" fill="#000000" stroke="#000000"> 	  		<path id="_42FB0EF0-2ED8-40B7-8C77-177C5A4406EDframe2" d="M 0 1 L 15 6 L 0 11z" fill="#000000" stroke="#000000" stroke-linejoin="round" stroke-width="2"/> 	  	</marker><marker id="_26EBCB4A-03E9-44A3-AAA8-ABF1B4B7DBC5start" refX="1" refY="5" markerUnits="userSpaceOnUse" markerWidth="17" markerHeight="11" orient="auto" fill="#000000" stroke="#000000"> 	  		<path id="_26EBCB4A-03E9-44A3-AAA8-ABF1B4B7DBC5conditional" d="M 0 5 L 8 0 L 16 5 L 8 10 L 0 5" fill="white" stroke="#000000" stroke-width="1" display="none"/> 			<path id="_26EBCB4A-03E9-44A3-AAA8-ABF1B4B7DBC5default" d="M 5 0 L 11 10" fill="white" stroke="#000000" stroke-width="1" display="none"/> 	  	</marker><marker id="_26EBCB4A-03E9-44A3-AAA8-ABF1B4B7DBC5end" refX="15" refY="6" markerUnits="userSpaceOnUse" markerWidth="15" markerHeight="12" orient="auto" fill="#000000" stroke="#000000"> 	  		<path id="_26EBCB4A-03E9-44A3-AAA8-ABF1B4B7DBC5frame2" d="M 0 1 L 15 6 L 0 11z" fill="#000000" stroke="#000000" stroke-linejoin="round" stroke-width="2"/> 	  	</marker><marker id="_362CBFE0-A7E4-4F90-8514-DB3B79BE7813start" refX="1" refY="5" markerUnits="userSpaceOnUse" markerWidth="17" markerHeight="11" orient="auto" fill="#000000" stroke="#000000"> 	  		<path id="_362CBFE0-A7E4-4F90-8514-DB3B79BE7813conditional" d="M 0 5 L 8 0 L 16 5 L 8 10 L 0 5" fill="white" stroke="#000000" stroke-width="1" display="none"/> 			<path id="_362CBFE0-A7E4-4F90-8514-DB3B79BE7813default" d="M 5 0 L 11 10" fill="white" stroke="#000000" stroke-width="1" display="none"/> 	  	</marker><marker id="_362CBFE0-A7E4-4F90-8514-DB3B79BE7813end" refX="15" refY="6" markerUnits="userSpaceOnUse" markerWidth="15" markerHeight="12" orient="auto" fill="#000000" stroke="#000000"> 	  		<path id="_362CBFE0-A7E4-4F90-8514-DB3B79BE7813frame2" d="M 0 1 L 15 6 L 0 11z" fill="#000000" stroke="#000000" stroke-linejoin="round" stroke-width="2"/> 	  	</marker><marker id="_6A23471F-5B6A-453C-A548-1361992F9CA8start" refX="1" refY="5" markerUnits="userSpaceOnUse" markerWidth="17" markerHeight="11" orient="auto" fill="#000000" stroke="#000000"> 	  		<path id="_6A23471F-5B6A-453C-A548-1361992F9CA8conditional" d="M 0 5 L 8 0 L 16 5 L 8 10 L 0 5" fill="white" stroke="#000000" stroke-width="1" display="none"/> 			<path id="_6A23471F-5B6A-453C-A548-1361992F9CA8default" d="M 5 0 L 11 10" fill="white" stroke="#000000" stroke-width="1" display="none"/> 	  	</marker><marker id="_6A23471F-5B6A-453C-A548-1361992F9CA8end" refX="15" refY="6" markerUnits="userSpaceOnUse" markerWidth="15" markerHeight="12" orient="auto" fill="#000000" stroke="#000000"> 	  		<path id="_6A23471F-5B6A-453C-A548-1361992F9CA8frame2" d="M 0 1 L 15 6 L 0 11z" fill="#000000" stroke="#000000" stroke-linejoin="round" stroke-width="2"/> 	  	</marker><marker id="_29F0ABBE-15B4-4F5E-91A0-855AA679ED90start" refX="1" refY="5" markerUnits="userSpaceOnUse" markerWidth="17" markerHeight="11" orient="auto" fill="#000000" stroke="#000000"> 	  		<path id="_29F0ABBE-15B4-4F5E-91A0-855AA679ED90conditional" d="M 0 5 L 8 0 L 16 5 L 8 10 L 0 5" fill="white" stroke="#000000" stroke-width="1" display="none"/> 			<path id="_29F0ABBE-15B4-4F5E-91A0-855AA679ED90default" d="M 5 0 L 11 10" fill="white" stroke="#000000" stroke-width="1" display="none"/> 	  	</marker><marker id="_29F0ABBE-15B4-4F5E-91A0-855AA679ED90end" refX="15" refY="6" markerUnits="userSpaceOnUse" markerWidth="15" markerHeight="12" orient="auto" fill="#000000" stroke="#000000"> 	  		<path id="_29F0ABBE-15B4-4F5E-91A0-855AA679ED90frame2" d="M 0 1 L 15 6 L 0 11z" fill="#000000" stroke="#000000" stroke-linejoin="round" stroke-width="2"/> 	  	</marker></defs><g stroke="none" font-family="Verdana, sans-serif" font-size-adjust="none" font-style="normal" font-variant="normal" font-weight="normal" line-heigth="normal" font-size="12"><g class="stencils" transform="translate(15, 16)"><g class="me"/><g class="children"><g id="_11D02AC0-0739-475F-90A3-22D5B3F32D77" bpmn2nodeid="processStartEvent"><g class="stencils" transform="translate(120, 165)"><g class="me"><g pointer-events="fill" id="_11D02AC0-0739-475F-90A3-22D5B3F32D77">        <defs id="_11D02AC0-0739-475F-90A3-22D5B3F32D77__11D02AC0-0739-475F-90A3-22D5B3F32D77_5"> 		<radialGradient id="_11D02AC0-0739-475F-90A3-22D5B3F32D77background" cx="10%" cy="10%" r="100%" fx="10%" fy="10%"> 			<stop offset="0%" stop-color="#ffffff" stop-opacity="1" id="_11D02AC0-0739-475F-90A3-22D5B3F32D77__11D02AC0-0739-475F-90A3-22D5B3F32D77_6"/> 			<stop id="_11D02AC0-0739-475F-90A3-22D5B3F32D77fill_el" offset="100%" stop-color="#9acd32" stop-opacity="1"/> 		</radialGradient> 	</defs> 	     <circle id="_11D02AC0-0739-475F-90A3-22D5B3F32D77bg_frame" cx="15" cy="15" r="15" stroke="#000000" fill="url(#_11D02AC0-0739-475F-90A3-22D5B3F32D77background) white" stroke-width="1" style="stroke-dasharray: 5.5, 3"/>      <circle id="_11D02AC0-0739-475F-90A3-22D5B3F32D77frame" cx="15" cy="15" r="15" stroke="#000000" fill="none" stroke-width="1" display="inherit"/>  	<text font-size="11" id="_11D02AC0-0739-475F-90A3-22D5B3F32D77text_name" x="15" y="32" oryx:align="top center" stroke="black" stroke-width="0pt" letter-spacing="-0.01px" fill="#000000" text-anchor="middle" transform="rotate(0 15 32)" visibility="inherit" oryx:fontSize="11"/>   </g></g><g class="children" style="overflow:hidden"/><g class="edge"/></g><g class="controls"><g class="dockers"/><g class="magnets" transform="translate(120, 165)"><g pointer-events="all" display="none" transform="translate(7, 7)"><circle cx="8" cy="8" r="4" stroke="none" fill="red" fill-opacity="0.3"/></g></g></g></g><g id="_9425C649-6057-496B-BF37-576099C2EF72" bpmn2nodeid="_906B9DA4-86D7-4ECF-B80B-2330BEBAAA90"><g class="stencils" transform="translate(195, 140)"><g class="me"><g pointer-events="fill" oryx:minimumSize="50 40" id="_9425C649-6057-496B-BF37-576099C2EF72">   	<defs id="_9425C649-6057-496B-BF37-576099C2EF72__9425C649-6057-496B-BF37-576099C2EF72_17"> 		<radialGradient id="_9425C649-6057-496B-BF37-576099C2EF72background" cx="10%" cy="10%" r="100%" fx="10%" fy="10%"> 			<stop offset="0%" stop-color="#ffffff" stop-opacity="1" id="_9425C649-6057-496B-BF37-576099C2EF72__9425C649-6057-496B-BF37-576099C2EF72_18"/> 			<stop id="_9425C649-6057-496B-BF37-576099C2EF72fill_el" offset="100%" stop-color="#fafad2" stop-opacity="1"/> 		</radialGradient> 		<radialGradient id="_9425C649-6057-496B-BF37-576099C2EF72borderbackground" cx="10%" cy="10%" r="100%" fx="10%" fy="10%"> 			<stop offset="0%" stop-color="#ffffff" stop-opacity="1" id="_9425C649-6057-496B-BF37-576099C2EF72__9425C649-6057-496B-BF37-576099C2EF72_19"/> 			<stop id="_9425C649-6057-496B-BF37-576099C2EF72fill_border" offset="100%" stop-color="#000000" stop-opacity="1" stroke="#000000"/> 		</radialGradient> 	</defs> 	 	<rect id="_9425C649-6057-496B-BF37-576099C2EF72text_frame" oryx:anchors="bottom top right left" x="1" y="1" width="94" height="79" rx="10" ry="10" stroke="none" stroke-width="0" fill="none"/> 	<rect id="_9425C649-6057-496B-BF37-576099C2EF72bg_frame" oryx:resize="vertical horizontal" x="0" y="0" width="100" height="80" rx="10" ry="10" stroke="#000000" stroke-width="1" fill="url(#_9425C649-6057-496B-BF37-576099C2EF72background) #ffffcc"/> 		<text font-size="12" id="_9425C649-6057-496B-BF37-576099C2EF72text_name" x="50" y="40" oryx:align="middle center" oryx:fittoelem="text_frame" stroke="black" text-anchor="middle" stroke-width="0pt" letter-spacing="-0.01px" fill="#000000" transform="rotate(0 50 40)" visibility="inherit" oryx:fontSize="12"><tspan x="50" y="40" dy="-1">Work on </tspan><tspan x="50" y="40" dy="11">contract</tspan></text>     <g id="_9425C649-6057-496B-BF37-576099C2EF72manualTask" transform="scale(0.7,0.7) translate(8,8)" display="none">     	<path oryx:anchors="top left" id="_9425C649-6057-496B-BF37-576099C2EF72frame" style="opacity:1;fill:none;fill-opacity:1;stroke-width:1" d="M0.5,3.751l4.083-3.25c0,0,11.166,0.083,12.083,0.083s-2.417,2.917-1.5,2.917     s11.667,0,12.584,0c1.166,1.708-0.168,3.167-0.834,3.667s0.875,1.917-1,4.417c-0.75,0.25,0.75,1.875-1.333,3.333     c-1.167,0.583,0.583,1.542-1.25,2.833c-1.167,0-20.833,0.083-20.833,0.083l-2-1.333V3.751z" stroke="#000000"/> 		<path id="_9425C649-6057-496B-BF37-576099C2EF72frame2" oryx:anchors="top left" style="opacity:1;fill:none;stroke-width:2" d="M 13.5 7 L 27 7" stroke="#000000"/> 		<path id="_9425C649-6057-496B-BF37-576099C2EF72frame3" oryx:anchors="top left" style="opacity:1;fill:none;stroke-width:2" d="M 13.5 11 L 26 11" stroke="#000000"/> 		<path id="_9425C649-6057-496B-BF37-576099C2EF72frame4" oryx:anchors="top left" style="opacity:1;fill:none;stroke-width:1.5" d="M 14 14.5 L 25 14.5" stroke="#000000"/> 		<path id="_9425C649-6057-496B-BF37-576099C2EF72frame5" oryx:anchors="top left" style="opacity:1;fill:none;stroke-width:1.5" d="M 8.2 3.1 L 15 3.1" stroke="#000000"/> 	</g> 	 	<g id="_9425C649-6057-496B-BF37-576099C2EF72businessRuleTask" transform="scale(0.7,0.7) translate(8,8)" display="none"> 		<rect id="_9425C649-6057-496B-BF37-576099C2EF72frame6" oryx:anchors="top left" x="0" y="0" width="22" height="4" style="opacity:1;fill:#B3B1B3;fill-opacity:1;" stroke="#000000"/> 		<rect id="_9425C649-6057-496B-BF37-576099C2EF72frame7" oryx:anchors="top left" x="0" y="4" style="opacity:1;fill:none;" width="22" height="12" stroke="#000000"/> 		<path id="_9425C649-6057-496B-BF37-576099C2EF72frame8" oryx:anchors="top left" style="opacity:1;fill:none;" d="M 0 10 L 22 10" stroke="#000000"/> 		<path id="_9425C649-6057-496B-BF37-576099C2EF72frame9" oryx:anchors="top left" style="opacity:1; fill:none;" d="M 7 4 L 7 16" stroke="#000000"/> 	</g> 	 	<g id="_9425C649-6057-496B-BF37-576099C2EF72scriptTask" transform="scale(0.7,0.7) translate(8,8)" display="none"> 		<path oryx:anchors="top left" id="_9425C649-6057-496B-BF37-576099C2EF72frame10" style="opacity:1;fill:none;" stroke="#000000" d="M6.402,0.5h14.5c0,0-5.833,2.833-5.833,5.583s4.417,6,4.417,9.167    s-4.167,5.083-4.167,5.083H0.235c0,0,5-2.667,5-5s-4.583-6.75-4.583-9.25S6.402,0.5,6.402,0.5z"/> 		<path oryx:anchors="top left" id="_9425C649-6057-496B-BF37-576099C2EF72frame11" style="opacity:1;fill:none;stroke-width:1.5" d="M 3.5 4.5 L 13.5 4.5" stroke="#000000"/> 		<path oryx:anchors="top left" id="_9425C649-6057-496B-BF37-576099C2EF72frame12" style="opacity:1;fill:none;stroke-width:1.5" d="M 3.8 8.5 L 13.8 8.5" stroke="#000000"/> 		<path oryx:anchors="top left" id="_9425C649-6057-496B-BF37-576099C2EF72frame13" style="opacity:1;fill:none;stroke-width:1.5" d="M 6.3 12.5 L 16.3 12.5" stroke="#000000"/> 		<path oryx:anchors="top left" id="_9425C649-6057-496B-BF37-576099C2EF72frame14" style="opacity:1;fill:none;stroke-width:1.5" d="M 6.5 16.5 L 16.5 16.5" stroke="#000000"/> 	</g> 	 	<g id="_9425C649-6057-496B-BF37-576099C2EF72userTask" transform="scale(0.7,0.7) translate(8,8)" display="inherit"> 		<path id="_9425C649-6057-496B-BF37-576099C2EF72frame15" oryx:anchors="top left" style="opacity:1;fill:#F4F6F7" stroke="#000000" d="M0.585,24.167h24.083v-7.833c0,0-2.333-3.917-7.083-5.167h-9.25    c-4.417,1.333-7.833,5.75-7.833,5.75L0.585,24.167z"/> 		<path id="_9425C649-6057-496B-BF37-576099C2EF72frame16" oryx:anchors="top left" style="opacity:1;fill:none" d="M 6 20 L 6 24" stroke="#000000"/> 		<path id="_9425C649-6057-496B-BF37-576099C2EF72frame17" oryx:anchors="top left" style="opacity:1;fill:none" d="M 20 20 L 20 24" stroke="#000000"/> 		<circle id="_9425C649-6057-496B-BF37-576099C2EF72frame18" oryx:anchors="top left" fill="black" cx="13.002" cy="5.916" r="5.417" stroke="#000000"/> 		<path id="_9425C649-6057-496B-BF37-576099C2EF72frame19" oryx:anchors="top left" style="opacity:1;fill:#F0EFF0;" stroke="#000000" d="M8.043,7.083c0,0,2.814-2.426,5.376-1.807s4.624-0.693,4.624-0.693    c0.25,1.688,0.042,3.75-1.458,5.584c0,0,1.083,0.75,1.083,1.5s0.125,1.875-1,3s-5.5,1.25-6.75,0S8.668,12.834,8.668,12    s0.583-1.25,1.25-1.917C8.835,9.5,7.419,7.708,8.043,7.083z"/> 	</g> 	 	<g id="_9425C649-6057-496B-BF37-576099C2EF72serviceTask" transform="scale(0.7,0.7) translate(8,8)" display="none"> 		<polygon oryx:anchors="top left" id="_9425C649-6057-496B-BF37-576099C2EF72frame20" style="opacity:1;fill:#ffffff" stroke="#000000" points="15.392,5.064 17.954,2.502 20.347,4.895 17.786,7.455     18.729,9.732 22.353,9.732 22.353,13.115 18.731,13.115 17.788,15.392 20.351,17.955 17.958,20.347 15.397,17.786 13.12,18.729     13.12,22.353 9.737,22.353 9.737,18.731 7.46,17.788 4.897,20.35 2.506,17.958 5.066,15.397 4.124,13.12 0.5,13.12 0.5,9.737     4.121,9.737 5.065,7.461 2.503,4.898 4.895,2.506 7.455,5.066 9.732,4.125 9.732,0.5 13.116,0.5 13.116,4.121 "/> 		<circle oryx:anchors="top left" id="_9425C649-6057-496B-BF37-576099C2EF72frame21" style="opacity:1;fill:none" stroke="#000000" cx="11.427" cy="11.426" r="3.714"/> 		<polygon oryx:anchors="top left" id="_9425C649-6057-496B-BF37-576099C2EF72frame22" style="opacity:1;fill:#ffffff" stroke="#000000" points="21.392,11.064 23.954,8.502 26.347,10.895 23.786,13.455     24.729,15.732 28.353,15.732 28.353,19.115 24.731,19.115 23.788,21.392 26.351,23.955 23.958,26.347 21.397,23.786 19.12,24.729     19.12,28.353 15.737,28.353 15.737,24.731 13.46,23.788 10.897,26.35 8.506,23.958 11.066,21.397 10.124,19.12 6.5,19.12     6.5,15.737 10.121,15.737 11.065,13.461 8.503,10.898 10.895,8.506 13.455,11.066 15.732,10.125 15.732,6.5 19.116,6.5     19.116,10.121 "/> 		<circle oryx:anchors="top left" id="_9425C649-6057-496B-BF37-576099C2EF72frame23" style="opacity:1;fill:none;" stroke="#000000" cx="17.427" cy="17.426" r="3.714"/> 	</g> 	 	<g id="_9425C649-6057-496B-BF37-576099C2EF72sendTask" display="none"> 		<path id="_9425C649-6057-496B-BF37-576099C2EF72stframe24" oryx:anchors="left top" stroke="#FFFFFF" fill="black" stroke-width="1" d="M8,11 L8,21 L24,21 L24,11 L16,17z"/> 		<path id="_9425C649-6057-496B-BF37-576099C2EF72stframe25" oryx:anchors="left top" stroke="#FFFFFF" fill="black" stroke-width="1" d="M7,10 L16,17 L25 10z"/> 	</g> 	 	<g id="_9425C649-6057-496B-BF37-576099C2EF72receiveTask" display="none"> 		<path id="_9425C649-6057-496B-BF37-576099C2EF72frame26" oryx:anchors="left top" stroke="#000000" fill="none" stroke-width="1" d="M8,11 L8,21 L24,21 L24,11z M8,11 L16,17 L24,11"/> 	</g> 	 	<g id="_9425C649-6057-496B-BF37-576099C2EF72none" display="inherit"/>  	<g id="_9425C649-6057-496B-BF37-576099C2EF72sequential" display="none">         <path oryx:anchors="bottom" fill="none" stroke="#000000" stroke-width="2" d="M46,76h10M46,72h10 M46,68h10" id="_9425C649-6057-496B-BF37-576099C2EF72__9425C649-6057-496B-BF37-576099C2EF72_20"/>     </g>   </g></g><g class="children" style="overflow:hidden"/><g class="edge"/></g><g class="controls"><g class="dockers"/><g class="magnets" transform="translate(195, 140)"><g pointer-events="all" display="none" transform="translate(-7, 12)"><circle cx="8" cy="8" r="4" stroke="none" fill="red" fill-opacity="0.3"/></g><g pointer-events="all" display="none" transform="translate(-7, 32)"><circle cx="8" cy="8" r="4" stroke="none" fill="red" fill-opacity="0.3"/></g><g pointer-events="all" display="none" transform="translate(-7, 52)"><circle cx="8" cy="8" r="4" stroke="none" fill="red" fill-opacity="0.3"/></g><g pointer-events="all" display="none" transform="translate(17, 71)"><circle cx="8" cy="8" r="4" stroke="none" fill="red" fill-opacity="0.3"/></g><g pointer-events="all" display="none" transform="translate(42, 71)"><circle cx="8" cy="8" r="4" stroke="none" fill="red" fill-opacity="0.3"/></g><g pointer-events="all" display="none" transform="translate(67, 71)"><circle cx="8" cy="8" r="4" stroke="none" fill="red" fill-opacity="0.3"/></g><g pointer-events="all" display="none" transform="translate(91, 12)"><circle cx="8" cy="8" r="4" stroke="none" fill="red" fill-opacity="0.3"/></g><g pointer-events="all" display="none" transform="translate(91, 32)"><circle cx="8" cy="8" r="4" stroke="none" fill="red" fill-opacity="0.3"/></g><g pointer-events="all" display="none" transform="translate(91, 52)"><circle cx="8" cy="8" r="4" stroke="none" fill="red" fill-opacity="0.3"/></g><g pointer-events="all" display="none" transform="translate(17, -7)"><circle cx="8" cy="8" r="4" stroke="none" fill="red" fill-opacity="0.3"/></g><g pointer-events="all" display="none" transform="translate(42, -7)"><circle cx="8" cy="8" r="4" stroke="none" fill="red" fill-opacity="0.3"/></g><g pointer-events="all" display="none" transform="translate(67, -7)"><circle cx="8" cy="8" r="4" stroke="none" fill="red" fill-opacity="0.3"/></g><g pointer-events="all" display="none" transform="translate(42, 32)"><circle cx="8" cy="8" r="4" stroke="none" fill="red" fill-opacity="0.3"/></g></g></g></g><g id="_45925C6C-4403-4FD3-ADDA-1CCE0AFA1A98" bpmn2nodeid="_44F44103-9D25-481B-ACA4-8FB41BBD3B0D"><g class="stencils" transform="translate(340, 160)"><g class="me"><g id="_45925C6C-4403-4FD3-ADDA-1CCE0AFA1A98">        <defs id="_45925C6C-4403-4FD3-ADDA-1CCE0AFA1A98__45925C6C-4403-4FD3-ADDA-1CCE0AFA1A98_4"> 		<radialGradient id="_45925C6C-4403-4FD3-ADDA-1CCE0AFA1A98background" cx="10%" cy="10%" r="100%" fx="10%" fy="10%"> 			<stop offset="0%" stop-color="#ffffff" stop-opacity="1" id="_45925C6C-4403-4FD3-ADDA-1CCE0AFA1A98__45925C6C-4403-4FD3-ADDA-1CCE0AFA1A98_5"/> 			<stop id="_45925C6C-4403-4FD3-ADDA-1CCE0AFA1A98fill_el" offset="100%" stop-color="#f0e68c" stop-opacity="1"/> 		</radialGradient> 		<radialGradient id="_45925C6C-4403-4FD3-ADDA-1CCE0AFA1A98borderbackground" cx="10%" cy="10%" r="100%" fx="10%" fy="10%"> 			<stop offset="0%" stop-color="#ffffff" stop-opacity="1" id="_45925C6C-4403-4FD3-ADDA-1CCE0AFA1A98__45925C6C-4403-4FD3-ADDA-1CCE0AFA1A98_6"/> 			<stop id="_45925C6C-4403-4FD3-ADDA-1CCE0AFA1A98fill_border" offset="100%" stop-color="#a67f00" stop-opacity="1" stroke="#a67f00"/> 		</radialGradient> 	</defs> 	     <path d=" M0 20.5  L20.5 0  L40 20.5  L20.5 40  z" id="_45925C6C-4403-4FD3-ADDA-1CCE0AFA1A98bg_frame" fill="url(#_45925C6C-4403-4FD3-ADDA-1CCE0AFA1A98background) white" style="stroke-width:1" stroke="#a67f00"/>     <g id="_45925C6C-4403-4FD3-ADDA-1CCE0AFA1A98frame" stroke="#a67f00">       <path id="_45925C6C-4403-4FD3-ADDA-1CCE0AFA1A98frame2" d=" M13.25 12.05  L17.25 12.05  L27.65 28.95  L23.75 28.95  z" style="stroke-width:1" stroke="#a67f00" fill="url(#_45925C6C-4403-4FD3-ADDA-1CCE0AFA1A98borderbackground)"/>       <path id="_45925C6C-4403-4FD3-ADDA-1CCE0AFA1A98frame3" d=" M13.25 28.95  L23.75 12.05  L27.65 12.05  L17.25 28.95  z" style="stroke-width:1" stroke="#a67f00" fill="url(#_45925C6C-4403-4FD3-ADDA-1CCE0AFA1A98borderbackground)"/>     </g> 	 	<text id="_45925C6C-4403-4FD3-ADDA-1CCE0AFA1A98text_name" x="30.5" y="30.5" oryx:align="left top" stroke-width="0pt" letter-spacing="-0.01px" fill="#000000" text-anchor="start" transform="rotate(0 30.5 30.5)" visibility="inherit" oryx:fontSize="12"/> 	   </g></g><g class="children" style="overflow:hidden"/><g class="edge"/></g><g class="controls"><g class="dockers"/><g class="magnets" transform="translate(340, 160)"><g pointer-events="all" display="none" transform="translate(12.5, 12.5)"><circle cx="8" cy="8" r="4" stroke="none" fill="red" fill-opacity="0.3"/></g></g></g></g><g id="_EAE3D314-3C97-467D-B338-F2CE66C2FF89" bpmn2nodeid="_28B17FCA-6F54-492D-B8CF-CFF92ACD8944"><g class="stencils" transform="translate(425, 90)"><g class="me"><g pointer-events="fill" id="_EAE3D314-3C97-467D-B338-F2CE66C2FF89">      <defs id="_EAE3D314-3C97-467D-B338-F2CE66C2FF89__EAE3D314-3C97-467D-B338-F2CE66C2FF89_5"> 		<radialGradient id="_EAE3D314-3C97-467D-B338-F2CE66C2FF89background" cx="10%" cy="10%" r="100%" fx="10%" fy="10%"> 			<stop offset="0%" stop-color="#ffffff" stop-opacity="1" id="_EAE3D314-3C97-467D-B338-F2CE66C2FF89__EAE3D314-3C97-467D-B338-F2CE66C2FF89_6"/> 			<stop id="_EAE3D314-3C97-467D-B338-F2CE66C2FF89fill_el" offset="100%" stop-color="#ff6347" stop-opacity="1"/> 		</radialGradient> 	</defs> 	     <circle id="_EAE3D314-3C97-467D-B338-F2CE66C2FF89bg_frame" cx="14" cy="14" r="14" stroke="#000000" fill="url(#_EAE3D314-3C97-467D-B338-F2CE66C2FF89background) white" stroke-width="3"/> 	<text font-size="11" id="_EAE3D314-3C97-467D-B338-F2CE66C2FF89text_name" x="14" y="30" oryx:align="top center" stroke="black" stroke-width="0pt" letter-spacing="-0.01px" fill="#000000" text-anchor="middle" transform="rotate(0 14 30)" visibility="inherit" oryx:fontSize="11"/>   </g></g><g class="children" style="overflow:hidden"/><g class="edge"/></g><g class="controls"><g class="dockers"/><g class="magnets" transform="translate(425, 90)"><g pointer-events="all" display="none" transform="translate(6, 6)"><circle cx="8" cy="8" r="4" stroke="none" fill="red" fill-opacity="0.3"/></g></g></g></g><g id="_E8AC087D-4A20-4BC8-BC16-913021B4EF7F" bpmn2nodeid="_DED788A2-257C-41B1-975D-D67AF6EBB035"><g class="stencils" transform="translate(425, 240)"><g class="me"><g pointer-events="fill" oryx:minimumSize="50 40" id="_E8AC087D-4A20-4BC8-BC16-913021B4EF7F">   	<defs id="_E8AC087D-4A20-4BC8-BC16-913021B4EF7F__E8AC087D-4A20-4BC8-BC16-913021B4EF7F_17"> 		<radialGradient id="_E8AC087D-4A20-4BC8-BC16-913021B4EF7Fbackground" cx="10%" cy="10%" r="100%" fx="10%" fy="10%"> 			<stop offset="0%" stop-color="#ffffff" stop-opacity="1" id="_E8AC087D-4A20-4BC8-BC16-913021B4EF7F__E8AC087D-4A20-4BC8-BC16-913021B4EF7F_18"/> 			<stop id="_E8AC087D-4A20-4BC8-BC16-913021B4EF7Ffill_el" offset="100%" stop-color="#fafad2" stop-opacity="1"/> 		</radialGradient> 		<radialGradient id="_E8AC087D-4A20-4BC8-BC16-913021B4EF7Fborderbackground" cx="10%" cy="10%" r="100%" fx="10%" fy="10%"> 			<stop offset="0%" stop-color="#ffffff" stop-opacity="1" id="_E8AC087D-4A20-4BC8-BC16-913021B4EF7F__E8AC087D-4A20-4BC8-BC16-913021B4EF7F_19"/> 			<stop id="_E8AC087D-4A20-4BC8-BC16-913021B4EF7Ffill_border" offset="100%" stop-color="#000000" stop-opacity="1" stroke="#000000"/> 		</radialGradient> 	</defs> 	 	<rect id="_E8AC087D-4A20-4BC8-BC16-913021B4EF7Ftext_frame" oryx:anchors="bottom top right left" x="1" y="1" width="94" height="79" rx="10" ry="10" stroke="none" stroke-width="0" fill="none"/> 	<rect id="_E8AC087D-4A20-4BC8-BC16-913021B4EF7Fbg_frame" oryx:resize="vertical horizontal" x="0" y="0" width="100" height="80" rx="10" ry="10" stroke="#000000" stroke-width="1" fill="url(#_E8AC087D-4A20-4BC8-BC16-913021B4EF7Fbackground) #ffffcc"/> 		<text font-size="12" id="_E8AC087D-4A20-4BC8-BC16-913021B4EF7Ftext_name" x="50" y="40" oryx:align="middle center" oryx:fittoelem="text_frame" stroke="black" text-anchor="middle" stroke-width="0pt" letter-spacing="-0.01px" fill="#000000" transform="rotate(0 50 40)" visibility="inherit" oryx:fontSize="12"><tspan x="50" y="40" dy="-1">Done with </tspan><tspan x="50" y="40" dy="11">contract</tspan></text>     <g id="_E8AC087D-4A20-4BC8-BC16-913021B4EF7FmanualTask" transform="scale(0.7,0.7) translate(8,8)" display="none">     	<path oryx:anchors="top left" id="_E8AC087D-4A20-4BC8-BC16-913021B4EF7Fframe" style="opacity:1;fill:none;fill-opacity:1;stroke-width:1" d="M0.5,3.751l4.083-3.25c0,0,11.166,0.083,12.083,0.083s-2.417,2.917-1.5,2.917     s11.667,0,12.584,0c1.166,1.708-0.168,3.167-0.834,3.667s0.875,1.917-1,4.417c-0.75,0.25,0.75,1.875-1.333,3.333     c-1.167,0.583,0.583,1.542-1.25,2.833c-1.167,0-20.833,0.083-20.833,0.083l-2-1.333V3.751z" stroke="#000000"/> 		<path id="_E8AC087D-4A20-4BC8-BC16-913021B4EF7Fframe2" oryx:anchors="top left" style="opacity:1;fill:none;stroke-width:2" d="M 13.5 7 L 27 7" stroke="#000000"/> 		<path id="_E8AC087D-4A20-4BC8-BC16-913021B4EF7Fframe3" oryx:anchors="top left" style="opacity:1;fill:none;stroke-width:2" d="M 13.5 11 L 26 11" stroke="#000000"/> 		<path id="_E8AC087D-4A20-4BC8-BC16-913021B4EF7Fframe4" oryx:anchors="top left" style="opacity:1;fill:none;stroke-width:1.5" d="M 14 14.5 L 25 14.5" stroke="#000000"/> 		<path id="_E8AC087D-4A20-4BC8-BC16-913021B4EF7Fframe5" oryx:anchors="top left" style="opacity:1;fill:none;stroke-width:1.5" d="M 8.2 3.1 L 15 3.1" stroke="#000000"/> 	</g> 	 	<g id="_E8AC087D-4A20-4BC8-BC16-913021B4EF7FbusinessRuleTask" transform="scale(0.7,0.7) translate(8,8)" display="inherit"> 		<rect id="_E8AC087D-4A20-4BC8-BC16-913021B4EF7Fframe6" oryx:anchors="top left" x="0" y="0" width="22" height="4" style="opacity:1;fill:#B3B1B3;fill-opacity:1;" stroke="#000000"/> 		<rect id="_E8AC087D-4A20-4BC8-BC16-913021B4EF7Fframe7" oryx:anchors="top left" x="0" y="4" style="opacity:1;fill:none;" width="22" height="12" stroke="#000000"/> 		<path id="_E8AC087D-4A20-4BC8-BC16-913021B4EF7Fframe8" oryx:anchors="top left" style="opacity:1;fill:none;" d="M 0 10 L 22 10" stroke="#000000"/> 		<path id="_E8AC087D-4A20-4BC8-BC16-913021B4EF7Fframe9" oryx:anchors="top left" style="opacity:1; fill:none;" d="M 7 4 L 7 16" stroke="#000000"/> 	</g> 	 	<g id="_E8AC087D-4A20-4BC8-BC16-913021B4EF7FscriptTask" transform="scale(0.7,0.7) translate(8,8)" display="none"> 		<path oryx:anchors="top left" id="_E8AC087D-4A20-4BC8-BC16-913021B4EF7Fframe10" style="opacity:1;fill:none;" stroke="#000000" d="M6.402,0.5h14.5c0,0-5.833,2.833-5.833,5.583s4.417,6,4.417,9.167    s-4.167,5.083-4.167,5.083H0.235c0,0,5-2.667,5-5s-4.583-6.75-4.583-9.25S6.402,0.5,6.402,0.5z"/> 		<path oryx:anchors="top left" id="_E8AC087D-4A20-4BC8-BC16-913021B4EF7Fframe11" style="opacity:1;fill:none;stroke-width:1.5" d="M 3.5 4.5 L 13.5 4.5" stroke="#000000"/> 		<path oryx:anchors="top left" id="_E8AC087D-4A20-4BC8-BC16-913021B4EF7Fframe12" style="opacity:1;fill:none;stroke-width:1.5" d="M 3.8 8.5 L 13.8 8.5" stroke="#000000"/> 		<path oryx:anchors="top left" id="_E8AC087D-4A20-4BC8-BC16-913021B4EF7Fframe13" style="opacity:1;fill:none;stroke-width:1.5" d="M 6.3 12.5 L 16.3 12.5" stroke="#000000"/> 		<path oryx:anchors="top left" id="_E8AC087D-4A20-4BC8-BC16-913021B4EF7Fframe14" style="opacity:1;fill:none;stroke-width:1.5" d="M 6.5 16.5 L 16.5 16.5" stroke="#000000"/> 	</g> 	 	<g id="_E8AC087D-4A20-4BC8-BC16-913021B4EF7FuserTask" transform="scale(0.7,0.7) translate(8,8)" display="none"> 		<path id="_E8AC087D-4A20-4BC8-BC16-913021B4EF7Fframe15" oryx:anchors="top left" style="opacity:1;fill:#F4F6F7" stroke="#000000" d="M0.585,24.167h24.083v-7.833c0,0-2.333-3.917-7.083-5.167h-9.25    c-4.417,1.333-7.833,5.75-7.833,5.75L0.585,24.167z"/> 		<path id="_E8AC087D-4A20-4BC8-BC16-913021B4EF7Fframe16" oryx:anchors="top left" style="opacity:1;fill:none" d="M 6 20 L 6 24" stroke="#000000"/> 		<path id="_E8AC087D-4A20-4BC8-BC16-913021B4EF7Fframe17" oryx:anchors="top left" style="opacity:1;fill:none" d="M 20 20 L 20 24" stroke="#000000"/> 		<circle id="_E8AC087D-4A20-4BC8-BC16-913021B4EF7Fframe18" oryx:anchors="top left" fill="black" cx="13.002" cy="5.916" r="5.417" stroke="#000000"/> 		<path id="_E8AC087D-4A20-4BC8-BC16-913021B4EF7Fframe19" oryx:anchors="top left" style="opacity:1;fill:#F0EFF0;" stroke="#000000" d="M8.043,7.083c0,0,2.814-2.426,5.376-1.807s4.624-0.693,4.624-0.693    c0.25,1.688,0.042,3.75-1.458,5.584c0,0,1.083,0.75,1.083,1.5s0.125,1.875-1,3s-5.5,1.25-6.75,0S8.668,12.834,8.668,12    s0.583-1.25,1.25-1.917C8.835,9.5,7.419,7.708,8.043,7.083z"/> 	</g> 	 	<g id="_E8AC087D-4A20-4BC8-BC16-913021B4EF7FserviceTask" transform="scale(0.7,0.7) translate(8,8)" display="none"> 		<polygon oryx:anchors="top left" id="_E8AC087D-4A20-4BC8-BC16-913021B4EF7Fframe20" style="opacity:1;fill:#ffffff" stroke="#000000" points="15.392,5.064 17.954,2.502 20.347,4.895 17.786,7.455     18.729,9.732 22.353,9.732 22.353,13.115 18.731,13.115 17.788,15.392 20.351,17.955 17.958,20.347 15.397,17.786 13.12,18.729     13.12,22.353 9.737,22.353 9.737,18.731 7.46,17.788 4.897,20.35 2.506,17.958 5.066,15.397 4.124,13.12 0.5,13.12 0.5,9.737     4.121,9.737 5.065,7.461 2.503,4.898 4.895,2.506 7.455,5.066 9.732,4.125 9.732,0.5 13.116,0.5 13.116,4.121 "/> 		<circle oryx:anchors="top left" id="_E8AC087D-4A20-4BC8-BC16-913021B4EF7Fframe21" style="opacity:1;fill:none" stroke="#000000" cx="11.427" cy="11.426" r="3.714"/> 		<polygon oryx:anchors="top left" id="_E8AC087D-4A20-4BC8-BC16-913021B4EF7Fframe22" style="opacity:1;fill:#ffffff" stroke="#000000" points="21.392,11.064 23.954,8.502 26.347,10.895 23.786,13.455     24.729,15.732 28.353,15.732 28.353,19.115 24.731,19.115 23.788,21.392 26.351,23.955 23.958,26.347 21.397,23.786 19.12,24.729     19.12,28.353 15.737,28.353 15.737,24.731 13.46,23.788 10.897,26.35 8.506,23.958 11.066,21.397 10.124,19.12 6.5,19.12     6.5,15.737 10.121,15.737 11.065,13.461 8.503,10.898 10.895,8.506 13.455,11.066 15.732,10.125 15.732,6.5 19.116,6.5     19.116,10.121 "/> 		<circle oryx:anchors="top left" id="_E8AC087D-4A20-4BC8-BC16-913021B4EF7Fframe23" style="opacity:1;fill:none;" stroke="#000000" cx="17.427" cy="17.426" r="3.714"/> 	</g> 	 	<g id="_E8AC087D-4A20-4BC8-BC16-913021B4EF7FsendTask" display="none"> 		<path id="_E8AC087D-4A20-4BC8-BC16-913021B4EF7Fstframe24" oryx:anchors="left top" stroke="#FFFFFF" fill="black" stroke-width="1" d="M8,11 L8,21 L24,21 L24,11 L16,17z"/> 		<path id="_E8AC087D-4A20-4BC8-BC16-913021B4EF7Fstframe25" oryx:anchors="left top" stroke="#FFFFFF" fill="black" stroke-width="1" d="M7,10 L16,17 L25 10z"/> 	</g> 	 	<g id="_E8AC087D-4A20-4BC8-BC16-913021B4EF7FreceiveTask" display="none"> 		<path id="_E8AC087D-4A20-4BC8-BC16-913021B4EF7Fframe26" oryx:anchors="left top" stroke="#000000" fill="none" stroke-width="1" d="M8,11 L8,21 L24,21 L24,11z M8,11 L16,17 L24,11"/> 	</g> 	 	<g id="_E8AC087D-4A20-4BC8-BC16-913021B4EF7Fnone" display="inherit"/>  	<g id="_E8AC087D-4A20-4BC8-BC16-913021B4EF7Fsequential" display="none">         <path oryx:anchors="bottom" fill="none" stroke="#000000" stroke-width="2" d="M46,76h10M46,72h10 M46,68h10" id="_E8AC087D-4A20-4BC8-BC16-913021B4EF7F__E8AC087D-4A20-4BC8-BC16-913021B4EF7F_20"/>     </g>   </g></g><g class="children" style="overflow:hidden"/><g class="edge"/></g><g class="controls"><g class="dockers"/><g class="magnets" transform="translate(425, 240)"><g pointer-events="all" display="none" transform="translate(-7, 12)"><circle cx="8" cy="8" r="4" stroke="none" fill="red" fill-opacity="0.3"/></g><g pointer-events="all" display="none" transform="translate(-7, 32)"><circle cx="8" cy="8" r="4" stroke="none" fill="red" fill-opacity="0.3"/></g><g pointer-events="all" display="none" transform="translate(-7, 52)"><circle cx="8" cy="8" r="4" stroke="none" fill="red" fill-opacity="0.3"/></g><g pointer-events="all" display="none" transform="translate(17, 71)"><circle cx="8" cy="8" r="4" stroke="none" fill="red" fill-opacity="0.3"/></g><g pointer-events="all" display="none" transform="translate(42, 71)"><circle cx="8" cy="8" r="4" stroke="none" fill="red" fill-opacity="0.3"/></g><g pointer-events="all" display="none" transform="translate(67, 71)"><circle cx="8" cy="8" r="4" stroke="none" fill="red" fill-opacity="0.3"/></g><g pointer-events="all" display="none" transform="translate(91, 12)"><circle cx="8" cy="8" r="4" stroke="none" fill="red" fill-opacity="0.3"/></g><g pointer-events="all" display="none" transform="translate(91, 32)"><circle cx="8" cy="8" r="4" stroke="none" fill="red" fill-opacity="0.3"/></g><g pointer-events="all" display="none" transform="translate(91, 52)"><circle cx="8" cy="8" r="4" stroke="none" fill="red" fill-opacity="0.3"/></g><g pointer-events="all" display="none" transform="translate(17, -7)"><circle cx="8" cy="8" r="4" stroke="none" fill="red" fill-opacity="0.3"/></g><g pointer-events="all" display="none" transform="translate(42, -7)"><circle cx="8" cy="8" r="4" stroke="none" fill="red" fill-opacity="0.3"/></g><g pointer-events="all" display="none" transform="translate(67, -7)"><circle cx="8" cy="8" r="4" stroke="none" fill="red" fill-opacity="0.3"/></g><g pointer-events="all" display="none" transform="translate(42, 32)"><circle cx="8" cy="8" r="4" stroke="none" fill="red" fill-opacity="0.3"/></g></g></g></g><g id="_ABA4D3FC-089D-4C52-8036-BF03C98ACD6B" bpmn2nodeid="_4B3C7A71-A910-4581-BC77-BAF3D08C4BCA"><g class="stencils" transform="translate(570, 266)"><g class="me"><g pointer-events="fill" id="_ABA4D3FC-089D-4C52-8036-BF03C98ACD6B">      <defs id="_ABA4D3FC-089D-4C52-8036-BF03C98ACD6B__ABA4D3FC-089D-4C52-8036-BF03C98ACD6B_5"> 		<radialGradient id="_ABA4D3FC-089D-4C52-8036-BF03C98ACD6Bbackground" cx="10%" cy="10%" r="100%" fx="10%" fy="10%"> 			<stop offset="0%" stop-color="#ffffff" stop-opacity="1" id="_ABA4D3FC-089D-4C52-8036-BF03C98ACD6B__ABA4D3FC-089D-4C52-8036-BF03C98ACD6B_6"/> 			<stop id="_ABA4D3FC-089D-4C52-8036-BF03C98ACD6Bfill_el" offset="100%" stop-color="#ff6347" stop-opacity="1"/> 		</radialGradient> 	</defs> 	     <circle id="_ABA4D3FC-089D-4C52-8036-BF03C98ACD6Bbg_frame" cx="14" cy="14" r="14" stroke="#000000" fill="url(#_ABA4D3FC-089D-4C52-8036-BF03C98ACD6Bbackground) white" stroke-width="3"/> 	<text font-size="11" id="_ABA4D3FC-089D-4C52-8036-BF03C98ACD6Btext_name" x="14" y="30" oryx:align="top center" stroke="black" stroke-width="0pt" letter-spacing="-0.01px" fill="#000000" text-anchor="middle" transform="rotate(0 14 30)" visibility="inherit" oryx:fontSize="11"/>   </g></g><g class="children" style="overflow:hidden"/><g class="edge"/></g><g class="controls"><g class="dockers"/><g class="magnets" transform="translate(570, 266)"><g pointer-events="all" display="none" transform="translate(6, 6)"><circle cx="8" cy="8" r="4" stroke="none" fill="red" fill-opacity="0.3"/></g></g></g></g></g><g class="edge"><g id="_42FB0EF0-2ED8-40B7-8C77-177C5A4406ED" bpmn2nodeid="_EC78F8A1-EA9D-4AB7-8393-3DDF87129A96"><g class="stencils"><g class="me"><g pointer-events="painted" bpmn2nodeid="_6FCD5CF5-5091-4BBD-98B3-8A1FEEBF4C49"><path id="_42FB0EF0-2ED8-40B7-8C77-177C5A4406ED_1" d="M150.609375 180L194.15625 180 " stroke="#000000" fill="none" stroke-width="2" stroke-linecap="round" stroke-linejoin="round" marker-start="url(#_42FB0EF0-2ED8-40B7-8C77-177C5A4406EDstart)" marker-end="url(#_42FB0EF0-2ED8-40B7-8C77-177C5A4406EDend)"/></g><text id="_42FB0EF0-2ED8-40B7-8C77-177C5A4406EDtext_name" font-size="12" x="164.609375" y="166" oryx:edgePosition="startTop" stroke-width="0pt" letter-spacing="-0.01px" fill="#000000" text-anchor="start" transform="rotate(360 150.609375 180)" visibility="inherit" oryx:fontSize="12"/></g><g class="children" style="overflow:hidden"/><g class="edge"/></g><g class="controls"><g class="dockers"/><g class="magnets"/></g></g><g id="_26EBCB4A-03E9-44A3-AAA8-ABF1B4B7DBC5" bpmn2nodeid="_55E0A1FB-A8EA-411F-9D50-FDF78E25120B"><g class="stencils"><g class="me"><g pointer-events="painted" bpmn2nodeid="_9D347BB3-673D-4B59-A7DC-754F2C67D9CF"><path id="_26EBCB4A-03E9-44A3-AAA8-ABF1B4B7DBC5_1" d="M295.4140625 180L340.1328125 180 " stroke="#000000" fill="none" stroke-width="2" stroke-linecap="round" stroke-linejoin="round" marker-start="url(#_26EBCB4A-03E9-44A3-AAA8-ABF1B4B7DBC5start)" marker-end="url(#_26EBCB4A-03E9-44A3-AAA8-ABF1B4B7DBC5end)"/></g><text id="_26EBCB4A-03E9-44A3-AAA8-ABF1B4B7DBC5text_name" font-size="12" x="309.4140625" y="166" oryx:edgePosition="startTop" stroke-width="0pt" letter-spacing="-0.01px" fill="#000000" text-anchor="start" transform="rotate(360 295.4140625 180)" visibility="inherit" oryx:fontSize="12"/></g><g class="children" style="overflow:hidden"/><g class="edge"/></g><g class="controls"><g class="dockers"/><g class="magnets"/></g></g><g id="_362CBFE0-A7E4-4F90-8514-DB3B79BE7813" bpmn2nodeid="_4B74064A-E56A-4D9B-A1F2-01E450D63AF1"><g class="stencils"><g class="me"><g pointer-events="painted" bpmn2nodeid="_3A56F380-517B-4F07-A052-47AD87BD1F76"><path id="_362CBFE0-A7E4-4F90-8514-DB3B79BE7813_1" d="M360 160L360 104 L424.421875 104 " stroke="#000000" fill="none" stroke-width="2" stroke-linecap="round" stroke-linejoin="round" marker-start="url(#_362CBFE0-A7E4-4F90-8514-DB3B79BE7813start)" marker-end="url(#_362CBFE0-A7E4-4F90-8514-DB3B79BE7813end)"/></g><text id="_362CBFE0-A7E4-4F90-8514-DB3B79BE7813text_name" font-size="12" x="374" y="146" oryx:edgePosition="startTop" stroke-width="0pt" letter-spacing="-0.01px" fill="#000000" text-anchor="start" transform="rotate(270 360 160)" visibility="inherit" oryx:fontSize="12"><tspan x="374" y="146" dy="0">failed</tspan></text></g><g class="children" style="overflow:hidden"/><g class="edge"/></g><g class="controls"><g class="dockers"/><g class="magnets"/></g></g><g id="_6A23471F-5B6A-453C-A548-1361992F9CA8" bpmn2nodeid="_E26A36E1-C00D-462C-BF1B-045D994B2C0A"><g class="stencils"><g class="me"><g pointer-events="painted" bpmn2nodeid="_4C5B5B9A-46C5-4757-BE2A-D0F228BC385C"><path id="_6A23471F-5B6A-453C-A548-1361992F9CA8_1" d="M360 199.75L360 280 L424.5859375 280 " stroke="#000000" fill="none" stroke-width="2" stroke-linecap="round" stroke-linejoin="round" marker-start="url(#_6A23471F-5B6A-453C-A548-1361992F9CA8start)" marker-end="url(#_6A23471F-5B6A-453C-A548-1361992F9CA8end)"/></g><text id="_6A23471F-5B6A-453C-A548-1361992F9CA8text_name" font-size="12" x="346" y="185.75" oryx:edgePosition="startTop" stroke-width="0pt" letter-spacing="-0.01px" fill="#000000" text-anchor="end" transform="rotate(-90 360 199.75)" visibility="inherit" oryx:fontSize="12"><tspan x="346" y="185.75" dy="0">done</tspan></text></g><g class="children" style="overflow:hidden"/><g class="edge"/></g><g class="controls"><g class="dockers"/><g class="magnets"/></g></g><g id="_29F0ABBE-15B4-4F5E-91A0-855AA679ED90" bpmn2nodeid="_D6CD7C92-C271-44D9-85A6-03E356A952FC"><g class="stencils"><g class="me"><g pointer-events="painted" bpmn2nodeid="_B567585F-A8D2-46D0-B158-AABB077C5579"><path id="_29F0ABBE-15B4-4F5E-91A0-855AA679ED90_1" d="M525.390625 280L569.375 280 " stroke="#000000" fill="none" stroke-width="2" stroke-linecap="round" stroke-linejoin="round" marker-start="url(#_29F0ABBE-15B4-4F5E-91A0-855AA679ED90start)" marker-end="url(#_29F0ABBE-15B4-4F5E-91A0-855AA679ED90end)"/></g><text id="_29F0ABBE-15B4-4F5E-91A0-855AA679ED90text_name" font-size="12" x="539.390625" y="266" oryx:edgePosition="startTop" stroke-width="0pt" letter-spacing="-0.01px" fill="#000000" text-anchor="start" transform="rotate(360 525.390625 280)" visibility="inherit" oryx:fontSize="12"/></g><g class="children" style="overflow:hidden"/><g class="edge"/></g><g class="controls"><g class="dockers"/><g class="magnets"/></g></g></g><text id="_6FA9D934-5C71-44DC-A73F-F674B5A6BA00" style="stroke-width:1;fill:rgb(177,194,214);font-family:arial;font-weight:bold" font-size="12" onclick="ORYX.Plugins.CanvasTitle.openTextualAnalysis()" onmouseover="ORYX.Plugins.CanvasTitle.addToolTip('_6FA9D934-5C71-44DC-A73F-F674B5A6BA00')" transform="translate(10, 20)">OfferContract v.1.0 (src.OfferContract)</text></g></g></svg>